<svg width="312" height="248" viewBox="0 0 312 248" fill="none" xmlns="http://www.w3.org/2000/svg">
<g clip-path="url(#clip0_1291_692)">
<g clip-path="url(#clip1_1291_692)">
<path d="M261.683 236.54H229.705C229.146 236.54 228.609 236.318 228.214 235.922C227.818 235.526 227.596 234.99 227.596 234.43C227.596 233.871 227.818 233.334 228.214 232.939C228.609 232.543 229.146 232.321 229.705 232.321H261.683C262.243 232.321 262.779 232.543 263.175 232.939C263.57 233.334 263.793 233.871 263.793 234.43C263.793 234.99 263.57 235.526 263.175 235.922C262.779 236.318 262.243 236.54 261.683 236.54ZM81.4091 96.9835C81.4091 96.9835 80.3966 92.6804 92.2935 88.8835C104.19 85.0866 110.772 80.5304 112.037 75.2148C112.037 75.2148 114.822 88.8835 119.884 91.4148C119.884 91.4148 126.212 71.671 111.531 64.5835C96.8497 57.496 80.1435 67.621 73.3091 80.7835C66.4747 93.946 67.7404 96.4773 60.6529 104.577C56.0544 109.832 22.9372 128.118 48.756 148.115C48.756 148.115 66.981 121.537 77.106 123.562C77.106 123.562 80.6111 108.339 80.1238 106.585C79.6527 104.886 70.0241 97.5917 73.2086 90.1217C73.3412 89.7848 73.539 89.4773 73.7905 89.2168C74.0421 88.9564 74.3425 88.748 74.6746 88.6037C76.1392 88.0208 78.8322 88.4813 81.4091 96.9835Z" fill="black"/>
<path d="M90.5949 144.355C87.1074 144.356 82.58 137.581 76.7785 123.696C76.748 123.611 76.7513 123.518 76.7877 123.435C76.8242 123.353 76.8909 123.287 76.9742 123.252C77.0575 123.218 77.1509 123.216 77.2352 123.249C77.3194 123.281 77.388 123.344 77.4268 123.426C84.6985 140.828 88.7823 144.016 90.9416 143.621C94.1781 143.029 95.1948 133.865 95.3136 130.383C95.0306 126.964 95.5003 123.524 96.6896 120.306C96.7203 120.229 96.7775 120.165 96.851 120.127C96.9245 120.088 97.0094 120.077 97.0904 120.095C102.645 121.317 107.283 120.433 110.872 117.468C119.921 109.989 119.534 91.6088 119.529 91.4239C119.527 91.3777 119.535 91.3316 119.552 91.2884C119.568 91.2452 119.593 91.2057 119.625 91.1721C119.657 91.1386 119.695 91.1116 119.737 91.0928C119.779 91.074 119.825 91.0637 119.871 91.0625C119.963 91.0636 120.052 91.0994 120.118 91.1629C120.185 91.2264 120.226 91.3129 120.232 91.4049C120.253 92.1727 120.635 110.31 111.32 118.009C107.622 121.066 102.884 122.019 97.2381 120.846C96.1794 123.9 95.7629 127.14 96.0146 130.362C95.9977 130.941 95.5203 143.499 91.0681 144.312C90.912 144.341 90.7536 144.355 90.5949 144.355Z" fill="black"/>
<path d="M107.963 105.984C107.189 105.974 106.428 105.774 105.749 105.401C105.069 105.029 104.492 104.494 104.067 103.846C104.018 103.769 104.001 103.675 104.02 103.586C104.039 103.496 104.091 103.417 104.167 103.366C104.243 103.315 104.336 103.295 104.426 103.311C104.516 103.327 104.596 103.378 104.65 103.452C105.206 104.304 106.064 104.915 107.051 105.162C107.396 105.269 107.758 105.306 108.117 105.271C108.476 105.236 108.825 105.13 109.143 104.958C109.431 104.728 109.67 104.443 109.847 104.12C110.024 103.796 110.135 103.441 110.173 103.074C110.338 102.082 110.224 101.064 109.843 100.133C109.682 99.6215 109.539 99.1039 109.415 98.5816C109.022 96.8709 108.484 94.5295 109.434 92.2901C109.767 91.4571 110.275 90.7062 110.926 90.089C111.577 89.4719 112.353 89.0032 113.202 88.7154C114.418 88.3709 115.712 88.4333 116.889 88.8933C116.976 88.9271 117.046 88.9941 117.083 89.0795C117.121 89.1648 117.123 89.2616 117.089 89.3485C117.055 89.4354 116.988 89.5053 116.903 89.5428C116.817 89.5804 116.721 89.5824 116.634 89.5486C115.603 89.1442 114.467 89.0884 113.401 89.3897C112.652 89.648 111.968 90.0654 111.395 90.6131C110.822 91.1608 110.374 91.826 110.083 92.5629C109.221 94.5942 109.729 96.8076 110.101 98.4234C110.232 98.9965 110.383 99.4922 110.516 99.9281C110.934 100.969 111.054 102.106 110.862 103.212C110.809 103.67 110.663 104.114 110.434 104.515C110.205 104.916 109.897 105.267 109.529 105.546C109.062 105.843 108.517 105.996 107.963 105.984ZM106.552 90.4317C106.493 90.4317 106.435 90.4167 106.383 90.3882C106.331 90.3597 106.287 90.3185 106.256 90.2686C103.697 86.2608 97.3786 88.695 97.3153 88.7189C97.2722 88.7369 97.2259 88.7462 97.1791 88.7461C97.1323 88.746 97.0861 88.7366 97.043 88.7184C96.9999 88.7003 96.9609 88.6737 96.9282 88.6402C96.8955 88.6067 96.8698 88.5671 96.8527 88.5236C96.8355 88.4801 96.8272 88.4336 96.8282 88.3868C96.8292 88.3401 96.8396 88.294 96.8586 88.2513C96.8777 88.2086 96.9051 88.1701 96.9392 88.1381C96.9733 88.1061 97.0135 88.0813 97.0573 88.065C97.1262 88.0369 103.982 85.4001 106.848 89.891C106.882 89.9441 106.901 90.0054 106.903 90.0683C106.905 90.1313 106.891 90.1937 106.86 90.249C106.83 90.3042 106.786 90.3504 106.731 90.3825C106.677 90.4147 106.615 90.4316 106.552 90.4317Z" fill="black"/>
<path d="M104.341 96.3332C104.551 94.8805 103.992 93.5973 103.093 93.4671C102.194 93.3369 101.294 94.4091 101.084 95.8618C100.874 97.3145 101.432 98.5977 102.331 98.7279C103.231 98.8581 104.13 97.786 104.341 96.3332Z" fill="black"/>
<path d="M116.313 98.0657C116.524 96.6129 115.965 95.3297 115.066 95.1995C114.166 95.0694 113.267 96.1415 113.057 97.5942C112.846 99.0469 113.405 100.33 114.304 100.46C115.203 100.591 116.103 99.5184 116.313 98.0657Z" fill="black"/>
<path d="M103.094 110.329L103.063 110.327C100.38 110.092 98.5783 109.231 97.7085 107.771C97.373 107.116 97.1841 106.395 97.1549 105.659C97.1258 104.923 97.2571 104.189 97.5398 103.509C97.5768 103.423 97.6463 103.356 97.733 103.322C97.8197 103.287 97.9165 103.289 98.0021 103.326C98.0877 103.363 98.155 103.432 98.1894 103.519C98.2237 103.606 98.2223 103.702 98.1852 103.788C98.1768 103.808 97.345 105.793 98.316 107.416C99.0641 108.668 100.682 109.412 103.124 109.627C103.214 109.635 103.298 109.677 103.357 109.745C103.417 109.813 103.448 109.902 103.444 109.992C103.44 110.082 103.401 110.168 103.336 110.23C103.271 110.293 103.184 110.328 103.094 110.329ZM97.0188 120.06C92.2708 119.468 87.9414 117.046 84.9531 113.31C86.3789 119.813 90.1853 125.549 95.6245 129.389C95.426 126.216 95.9011 123.036 97.0188 120.06Z" fill="black"/>
<path d="M78.1954 186.042C72.1745 186.042 67.2294 186.014 65.9448 185.928C65.7298 185.915 65.521 185.851 65.3361 185.74C65.1513 185.629 64.9959 185.475 64.8831 185.292C63.0852 182.538 67.1844 170.488 68.1787 167.679C62.5171 167.131 43.0469 158.11 42.1954 157.715C42.149 157.694 42.1078 157.662 42.0748 157.623C42.0418 157.584 42.0178 157.538 42.0044 157.488C41.991 157.439 41.9886 157.387 41.9973 157.337C42.006 157.286 42.0256 157.238 42.0548 157.196L48.4672 147.915C48.5219 147.843 48.6024 147.794 48.6919 147.78C48.7815 147.765 48.8732 147.786 48.9479 147.837C49.0225 147.889 49.0743 147.967 49.0925 148.056C49.1106 148.145 49.0937 148.238 49.0452 148.314L42.8704 157.252C45.7595 158.58 64.2609 167.001 68.668 167.001C68.7245 167.001 68.7801 167.014 68.8302 167.04C68.8802 167.066 68.9233 167.104 68.9557 167.15C68.9881 167.197 69.0089 167.25 69.0164 167.306C69.0238 167.362 69.0177 167.419 68.9985 167.472C67.5212 171.561 64.0063 182.663 65.4723 184.907C65.5253 185 65.6006 185.077 65.6914 185.133C65.7822 185.189 65.8855 185.221 65.9919 185.226C69.5926 185.465 103.437 185.245 106.279 185.227C107.304 183.675 115.599 170.928 114.237 167.018C112.738 162.714 111.72 160.08 111.709 160.054C111.679 159.977 111.678 159.892 111.704 159.814C111.731 159.735 111.784 159.669 111.855 159.626L117.17 156.405C116.251 154.144 109.442 138.335 95.4395 129.689C95.3601 129.64 95.3034 129.561 95.2819 129.47C95.2604 129.379 95.2759 129.284 95.3249 129.204C95.3739 129.125 95.4525 129.068 95.5434 129.047C95.6342 129.025 95.7299 129.041 95.8094 129.09C111.047 138.5 117.868 156.25 117.935 156.429C117.964 156.505 117.965 156.59 117.938 156.667C117.911 156.745 117.858 156.811 117.788 156.853L112.471 160.076C113.311 162.302 114.121 164.539 114.901 166.787C116.459 171.26 107.157 185.184 106.761 185.773C106.729 185.821 106.685 185.86 106.635 185.887C106.584 185.914 106.528 185.928 106.471 185.929C105.483 185.936 89.8314 186.042 78.1954 186.042Z" fill="black"/>
<path d="M75.9339 149.802L69.0152 167.352L64.2578 166.269L75.9339 149.802ZM111.783 160.18L104.316 147.734L114.01 158.83L111.783 160.18Z" fill="black"/>
<path d="M146.973 224.833C144.679 224.833 142.426 223.304 141.681 222.747C141.323 223.129 140.882 223.423 140.393 223.607C139.903 223.792 139.378 223.861 138.857 223.811C135.776 223.43 132.988 218.487 131.143 215.216C130.717 214.41 130.245 213.629 129.731 212.876C129.105 212.073 127.325 213.077 125.072 214.351C122.187 215.981 118.224 218.217 113.999 218.075L112.612 218.031C81.7095 217.07 29.2585 214.494 25.1713 208.04C20.3028 200.354 43.6346 160.109 44.6302 158.399C44.6536 158.359 44.6845 158.324 44.7213 158.296C44.7581 158.268 44.8001 158.248 44.8447 158.236C44.8894 158.224 44.936 158.222 44.9818 158.228C45.0275 158.234 45.0716 158.249 45.1115 158.273C45.1514 158.296 45.1863 158.327 45.2143 158.364C45.2422 158.401 45.2626 158.443 45.2743 158.487C45.286 158.532 45.2888 158.578 45.2826 158.624C45.2763 158.67 45.2611 158.714 45.2377 158.754C44.9959 159.169 21.1234 200.335 25.7647 207.663C28.6236 212.177 60.286 215.7 112.634 217.328L114.022 217.372C118.056 217.496 121.757 215.417 124.726 213.74C127.374 212.242 129.286 211.159 130.286 212.445C130.824 213.224 131.315 214.034 131.756 214.871C133.531 218.018 136.214 222.775 138.943 223.113C139.409 223.15 139.877 223.071 140.305 222.883C140.733 222.696 141.108 222.405 141.397 222.037C141.458 221.973 141.542 221.934 141.63 221.928C141.719 221.923 141.807 221.952 141.875 222.009C141.91 222.037 145.37 224.836 148.14 223.956C149.557 223.503 150.581 222.142 151.185 219.91C151.2 219.855 151.228 219.805 151.266 219.763C151.305 219.722 151.353 219.69 151.406 219.671C151.46 219.652 151.517 219.646 151.573 219.654C151.629 219.662 151.683 219.684 151.729 219.717C151.766 219.743 155.431 222.342 158.065 221.201C159.506 220.573 160.407 218.916 160.744 216.275C161.077 213.399 160.646 210.486 159.495 207.83C158.06 204.423 155.07 198.237 151.177 195.089C151.11 195.035 151.065 194.957 151.052 194.872C151.038 194.787 151.057 194.7 151.103 194.627C151.15 194.554 151.222 194.501 151.305 194.478C151.388 194.455 151.477 194.463 151.554 194.502C151.99 194.72 162.281 199.886 166.573 203.926C168.789 206.012 170.973 206.119 172.154 205.297C173.485 204.371 173.7 202.347 172.716 200.015C170.338 194.384 155.939 183.213 153.535 182.626C153.471 182.611 153.413 182.577 153.367 182.53C153.321 182.483 153.289 182.423 153.275 182.359C153.262 182.295 153.266 182.228 153.289 182.166C153.311 182.104 153.35 182.049 153.402 182.008C153.455 181.967 158.679 177.866 159.405 173.995C159.883 171.442 159.568 169.471 158.54 168.588C157.694 167.862 156.352 167.813 154.55 168.443C152.324 169.222 150.029 170.772 147.81 172.269C145.013 174.158 142.121 176.111 139.188 176.683C135.852 177.334 132.464 177.73 129.991 178.02C128.552 178.188 127.415 178.321 126.652 178.456C122.201 179.241 111.348 181.533 106.707 185.835C106.639 185.898 106.548 185.932 106.455 185.928C106.361 185.925 106.273 185.884 106.21 185.816C106.147 185.747 106.113 185.657 106.116 185.563C106.12 185.47 106.16 185.382 106.229 185.319C111.007 180.89 122.018 178.56 126.53 177.764C127.314 177.625 128.459 177.491 129.909 177.321C132.371 177.033 135.744 176.638 139.054 175.992C141.846 175.448 144.678 173.536 147.417 171.687C149.673 170.164 152.006 168.589 154.318 167.78C156.374 167.059 157.949 167.153 158.998 168.054C160.24 169.121 160.63 171.277 160.096 174.124C159.448 177.579 155.666 181.032 154.311 182.175C158.096 183.941 171.052 194.267 173.363 199.742C174.703 202.916 173.825 204.991 172.555 205.873C171.141 206.857 168.594 206.793 166.091 204.437C163.065 201.59 156.79 198.064 153.447 196.28C156.373 199.48 158.655 204.026 160.143 207.557C161.342 210.328 161.79 213.365 161.442 216.364C161.071 219.269 160.029 221.113 158.344 221.845C155.874 222.92 152.822 221.25 151.727 220.559C151.039 222.764 149.906 224.131 148.352 224.626C147.906 224.766 147.441 224.836 146.973 224.833Z" fill="black"/>
<path d="M141.65 222.631C141.605 222.631 141.56 222.622 141.518 222.605C141.431 222.57 141.362 222.502 141.326 222.416C141.289 222.331 141.289 222.234 141.324 222.147C142.616 218.966 136.486 208.606 134.016 204.882C133.99 204.844 133.971 204.8 133.961 204.755C133.952 204.709 133.951 204.662 133.96 204.616C133.969 204.57 133.987 204.526 134.013 204.488C134.039 204.449 134.072 204.415 134.111 204.39C134.15 204.364 134.194 204.346 134.239 204.337C134.285 204.328 134.332 204.329 134.378 204.339C134.424 204.348 134.467 204.367 134.505 204.393C134.544 204.42 134.577 204.454 134.602 204.493C134.973 205.052 143.671 218.238 141.975 222.412C141.949 222.477 141.904 222.532 141.846 222.571C141.788 222.61 141.72 222.631 141.65 222.631ZM151.521 220.354C151.433 220.354 151.348 220.32 151.283 220.261C151.218 220.201 151.178 220.119 151.171 220.032C150.429 211.127 141.66 199.575 141.572 199.459C141.542 199.422 141.52 199.38 141.506 199.335C141.493 199.29 141.489 199.242 141.495 199.195C141.5 199.149 141.515 199.103 141.538 199.062C141.562 199.021 141.593 198.985 141.63 198.957C141.668 198.928 141.711 198.907 141.756 198.896C141.802 198.884 141.85 198.881 141.896 198.889C141.943 198.896 141.988 198.912 142.028 198.937C142.068 198.961 142.103 198.994 142.13 199.032C142.496 199.51 151.113 210.863 151.871 219.973C151.879 220.065 151.85 220.158 151.789 220.229C151.729 220.3 151.643 220.344 151.551 220.352C151.541 220.353 151.531 220.354 151.521 220.354ZM128.252 178.225C128.191 178.225 128.131 178.21 128.079 178.18C128.026 178.15 127.982 178.107 127.95 178.055L115.673 157.721C115.625 157.642 115.61 157.546 115.632 157.455C115.655 157.365 115.712 157.287 115.792 157.238C115.872 157.19 115.967 157.175 116.058 157.198C116.148 157.22 116.227 157.277 116.275 157.357L128.553 177.692C128.585 177.745 128.602 177.806 128.603 177.868C128.604 177.93 128.588 177.992 128.558 178.046C128.527 178.1 128.483 178.145 128.429 178.177C128.375 178.208 128.314 178.224 128.252 178.224V178.225ZM27.9968 227.303C27.9652 227.303 27.9338 227.299 27.9032 227.291C27.8587 227.279 27.8169 227.258 27.7804 227.23C27.744 227.202 27.7134 227.166 27.6905 227.126C27.6677 227.086 27.653 227.042 27.6472 226.996C27.6415 226.95 27.6449 226.903 27.6571 226.859L32.0496 210.92C32.0744 210.83 32.1339 210.754 32.215 210.708C32.2961 210.662 32.3921 210.65 32.482 210.674C32.5719 210.699 32.6482 210.759 32.6942 210.84C32.7403 210.921 32.7522 211.017 32.7274 211.107L28.3357 227.046C28.3152 227.12 28.271 227.186 28.2097 227.232C28.1485 227.279 28.0737 227.303 27.9968 227.303ZM114.008 227.303C113.915 227.303 113.825 227.266 113.759 227.2C113.693 227.134 113.656 227.045 113.656 226.952V217.724C113.656 217.631 113.693 217.541 113.759 217.475C113.825 217.409 113.915 217.372 114.008 217.372C114.101 217.372 114.191 217.409 114.257 217.475C114.322 217.541 114.359 217.631 114.359 217.724V226.952C114.359 227.046 114.322 227.135 114.257 227.201C114.191 227.267 114.101 227.303 114.008 227.303Z" fill="black"/>
<path d="M301.542 227.303H19.0547C18.9614 227.303 18.872 227.266 18.8061 227.2C18.7402 227.134 18.7031 227.044 18.7031 226.951C18.7031 226.858 18.7402 226.768 18.8061 226.703C18.872 226.637 18.9614 226.6 19.0547 226.6H301.542C301.635 226.6 301.725 226.637 301.791 226.703C301.857 226.768 301.894 226.858 301.894 226.951C301.894 227.044 301.857 227.134 301.791 227.2C301.725 227.266 301.635 227.303 301.542 227.303Z" fill="black"/>
<path d="M281.274 215.614H187.918L201.98 148.114H294.751C294.96 148.114 295.166 148.161 295.355 148.251C295.544 148.34 295.71 148.471 295.842 148.633C295.974 148.796 296.068 148.985 296.117 149.188C296.167 149.391 296.17 149.603 296.127 149.807L282.651 214.495C282.585 214.811 282.412 215.095 282.161 215.299C281.91 215.503 281.597 215.614 281.274 215.614Z" fill="#A4A4A4"/>
<path d="M196.276 149.234L182.799 213.921C182.756 214.126 182.76 214.337 182.809 214.54C182.859 214.744 182.953 214.933 183.085 215.095C183.217 215.257 183.383 215.388 183.572 215.478C183.76 215.568 183.967 215.614 184.176 215.614H187.916L201.979 148.114H197.653C197.329 148.114 197.016 148.226 196.765 148.429C196.515 148.633 196.342 148.917 196.276 149.234Z" fill="black"/>
<path d="M269.417 236.539H247.094L233.031 196.039H256.331C256.623 196.039 256.908 196.13 257.146 196.299C257.384 196.469 257.564 196.708 257.66 196.984L270.745 234.672C270.818 234.883 270.84 235.11 270.808 235.332C270.777 235.554 270.692 235.765 270.562 235.948C270.432 236.131 270.26 236.28 270.061 236.382C269.862 236.485 269.641 236.539 269.417 236.539Z" fill="#696969"/>
<path d="M228.965 197.907L242.05 235.594C242.146 235.87 242.325 236.109 242.563 236.279C242.801 236.448 243.086 236.539 243.379 236.539H247.091L233.029 196.039H230.293C230.069 196.039 229.848 196.093 229.649 196.195C229.449 196.298 229.277 196.447 229.147 196.63C229.017 196.813 228.933 197.024 228.901 197.246C228.869 197.468 228.891 197.695 228.965 197.907Z" fill="black"/>
<path d="M244.055 178.658H240.343C238.572 178.658 237.137 180.094 237.137 181.864C237.137 183.635 238.572 185.071 240.343 185.071H244.055C245.826 185.071 247.262 183.635 247.262 181.864C247.262 180.094 245.826 178.658 244.055 178.658Z" fill="black"/>
<path d="M181.116 31.8496H137.742C137.369 31.8496 137.012 31.9978 136.748 32.2615C136.484 32.5252 136.336 32.8829 136.336 33.2559V64.3621C136.336 64.7351 136.484 65.0927 136.748 65.3565C137.012 65.6202 137.369 65.7684 137.742 65.7684H164.633L170.076 74.4358C170.141 74.5391 170.232 74.6238 170.339 74.6814C170.447 74.7391 170.568 74.7677 170.69 74.7645C170.812 74.7613 170.931 74.7264 171.035 74.6632C171.14 74.6 171.226 74.5108 171.285 74.4041L176.108 65.7684H181.116C181.489 65.7684 181.847 65.6202 182.11 65.3565C182.374 65.0927 182.522 64.7351 182.522 64.3621V33.2559C182.522 32.8829 182.374 32.5252 182.11 32.2615C181.847 31.9978 181.489 31.8496 181.116 31.8496Z" fill="#9F9F9F"/>
<path d="M267.054 61.0938H201.023C200.65 61.0938 200.293 61.2419 200.029 61.5056C199.765 61.7694 199.617 62.127 199.617 62.5V99.2636C199.617 99.6366 199.765 99.9942 200.029 100.258C200.293 100.522 200.65 100.67 201.023 100.67H250.36L255.007 108.067C255.072 108.171 255.163 108.255 255.27 108.313C255.378 108.37 255.498 108.399 255.62 108.396C255.742 108.393 255.861 108.358 255.966 108.295C256.07 108.232 256.156 108.143 256.216 108.036L260.329 100.67H267.053C267.426 100.67 267.784 100.522 268.048 100.258C268.311 99.9942 268.459 99.6366 268.459 99.2636V62.5C268.459 62.127 268.311 61.7694 268.048 61.5056C267.784 61.2419 267.426 61.0938 267.053 61.0938H267.054Z" fill="#D3D3D3"/>
<path d="M148.799 51.5615C151.513 51.5615 151.518 47.3428 148.799 47.3428C146.085 47.3428 146.08 51.5615 148.799 51.5615ZM159.431 51.5615C162.145 51.5615 162.15 47.3428 159.431 47.3428C156.716 47.3428 156.712 51.5615 159.431 51.5615ZM170.062 51.5615C172.776 51.5615 172.781 47.3428 170.062 47.3428C167.347 47.3428 167.343 51.5615 170.062 51.5615ZM259.471 75.4678H235.171C234.985 75.4678 234.806 75.3937 234.674 75.2618C234.542 75.13 234.468 74.9511 234.468 74.7646C234.468 74.5782 234.542 74.3993 234.674 74.2675C234.806 74.1356 234.985 74.0615 235.171 74.0615H259.471C259.658 74.0615 259.837 74.1356 259.968 74.2675C260.1 74.3993 260.174 74.5782 260.174 74.7646C260.174 74.9511 260.1 75.13 259.968 75.2618C259.837 75.3937 259.658 75.4678 259.471 75.4678ZM259.471 81.8782H235.171C234.985 81.8782 234.806 81.8041 234.674 81.6722C234.542 81.5404 234.468 81.3615 234.468 81.175C234.468 80.9886 234.542 80.8097 234.674 80.6778C234.806 80.546 234.985 80.4719 235.171 80.4719H259.471C259.658 80.4719 259.837 80.546 259.968 80.6778C260.1 80.8097 260.174 80.9886 260.174 81.175C260.174 81.3615 260.1 81.5404 259.968 81.6722C259.837 81.8041 259.658 81.8782 259.471 81.8782ZM259.471 88.2879H235.171C234.985 88.2879 234.806 88.2138 234.674 88.0819C234.542 87.9501 234.468 87.7712 234.468 87.5847C234.468 87.3982 234.542 87.2194 234.674 87.0875C234.806 86.9557 234.985 86.8816 235.171 86.8816H259.471C259.658 86.8816 259.837 86.9557 259.968 87.0875C260.1 87.2194 260.174 87.3982 260.174 87.5847C260.174 87.7712 260.1 87.9501 259.968 88.0819C259.837 88.2138 259.658 88.2879 259.471 88.2879ZM227.353 91.6657H208.902C208.343 91.6651 207.807 91.4427 207.412 91.0472C207.016 90.6518 206.794 90.1156 206.793 89.5563V72.7938C206.794 72.2345 207.016 71.6983 207.412 71.3029C207.807 70.9074 208.343 70.685 208.902 70.6844H227.353C227.912 70.685 228.448 70.9074 228.843 71.3029C229.239 71.6983 229.461 72.2345 229.462 72.7938V89.5563C229.461 90.1156 229.239 90.6518 228.843 91.0472C228.448 91.4427 227.912 91.6651 227.353 91.6657ZM208.902 72.0907C208.716 72.0908 208.537 72.165 208.406 72.2968C208.274 72.4286 208.2 72.6074 208.199 72.7938V89.5563C208.2 89.7427 208.274 89.9214 208.406 90.0533C208.537 90.1851 208.716 90.2592 208.902 90.2594H227.353C227.539 90.2592 227.718 90.1851 227.849 90.0533C227.981 89.9214 228.055 89.7427 228.056 89.5563V72.7938C228.055 72.6074 227.981 72.4286 227.849 72.2968C227.718 72.165 227.539 72.0908 227.353 72.0907H208.902Z" fill="black"/>
<path d="M231.487 85.0859H188.23C187.858 85.0859 187.5 85.2341 187.236 85.4978C186.972 85.7615 186.824 86.1192 186.824 86.4922V116.303C186.824 116.676 186.972 117.034 187.236 117.298C187.5 117.561 187.858 117.71 188.23 117.71H196.991L201.685 125.181C201.75 125.284 201.84 125.369 201.948 125.427C202.056 125.484 202.176 125.513 202.298 125.51C202.42 125.506 202.54 125.472 202.644 125.408C202.748 125.345 202.835 125.256 202.894 125.149L207.048 117.71H231.487C231.86 117.71 232.217 117.561 232.481 117.298C232.745 117.034 232.893 116.676 232.893 116.303V86.4922C232.893 86.1192 232.745 85.7615 232.481 85.4978C232.217 85.2341 231.86 85.0859 231.487 85.0859Z" fill="#696969"/>
<path d="M222.011 95.9189H197.711C197.524 95.9189 197.346 95.8449 197.214 95.713C197.082 95.5811 197.008 95.4023 197.008 95.2158C197.008 95.0293 197.082 94.8505 197.214 94.7186C197.346 94.5868 197.524 94.5127 197.711 94.5127H222.011C222.197 94.5127 222.376 94.5868 222.508 94.7186C222.64 94.8505 222.714 95.0293 222.714 95.2158C222.714 95.4023 222.64 95.5811 222.508 95.713C222.376 95.8449 222.197 95.9189 222.011 95.9189ZM222.011 102.329H197.711C197.524 102.329 197.346 102.255 197.214 102.123C197.082 101.991 197.008 101.812 197.008 101.626C197.008 101.439 197.082 101.26 197.214 101.128C197.346 100.996 197.524 100.922 197.711 100.922H222.011C222.197 100.922 222.376 100.996 222.508 101.128C222.64 101.26 222.714 101.439 222.714 101.626C222.714 101.812 222.64 101.991 222.508 102.123C222.376 102.255 222.197 102.329 222.011 102.329ZM222.011 108.739H197.711C197.524 108.739 197.346 108.665 197.214 108.533C197.082 108.401 197.008 108.222 197.008 108.036C197.008 107.849 197.082 107.671 197.214 107.539C197.346 107.407 197.524 107.333 197.711 107.333H222.011C222.197 107.333 222.376 107.407 222.508 107.539C222.64 107.671 222.714 107.849 222.714 108.036C222.714 108.222 222.64 108.401 222.508 108.533C222.376 108.665 222.197 108.739 222.011 108.739Z" fill="black"/>
<path d="M10.457 182.819H49.9284V187.322H10.457V182.819Z" fill="#A4A4A4"/>
<path d="M259.473 131.969H298.944V136.472H259.473V131.969Z" fill="#A3A3A3"/>
<path d="M50.3594 47.2012H89.8307V51.704H50.3594V47.2012Z" fill="#9F9F9F"/>
<path d="M222.009 35.0786C221.371 35.0786 220.747 34.8892 220.216 34.5344C219.685 34.1797 219.271 33.6754 219.026 33.0854C218.782 32.4955 218.718 31.8463 218.843 31.2199C218.967 30.5936 219.275 30.0183 219.726 29.5668C220.178 29.1152 220.753 28.8077 221.38 28.6831C222.006 28.5586 222.655 28.6225 223.245 28.8669C223.835 29.1112 224.339 29.5251 224.694 30.056C225.049 30.587 225.238 31.2113 225.238 31.8498C225.237 32.7059 224.897 33.5266 224.292 34.1319C223.686 34.7372 222.865 35.0777 222.009 35.0786ZM222.009 29.3242C221.51 29.3242 221.022 29.4723 220.606 29.7499C220.191 30.0274 219.867 30.4218 219.676 30.8833C219.485 31.3448 219.435 31.8526 219.532 32.3426C219.63 32.8325 219.87 33.2825 220.224 33.6357C220.577 33.9889 221.027 34.2295 221.517 34.3269C222.007 34.4244 222.514 34.3744 222.976 34.1832C223.437 33.9921 223.832 33.6683 224.109 33.253C224.387 32.8377 224.535 32.3494 224.535 31.8498C224.534 31.1803 224.268 30.5384 223.794 30.065C223.321 29.5915 222.679 29.3251 222.009 29.3242ZM134.31 124.578C133.672 124.578 133.047 124.388 132.517 124.034C131.986 123.679 131.572 123.174 131.328 122.584C131.083 121.995 131.02 121.345 131.144 120.719C131.269 120.093 131.576 119.518 132.028 119.066C132.479 118.615 133.054 118.307 133.681 118.183C134.307 118.058 134.956 118.122 135.546 118.366C136.136 118.61 136.64 119.024 136.995 119.555C137.35 120.086 137.539 120.71 137.54 121.349C137.539 122.205 137.198 123.026 136.593 123.631C135.987 124.237 135.166 124.577 134.31 124.578ZM134.31 118.824C133.811 118.824 133.322 118.972 132.907 119.25C132.492 119.527 132.168 119.922 131.977 120.383C131.786 120.845 131.736 121.353 131.834 121.843C131.931 122.333 132.172 122.782 132.525 123.136C132.879 123.489 133.329 123.729 133.819 123.826C134.309 123.924 134.817 123.874 135.278 123.682C135.739 123.491 136.134 123.167 136.411 122.752C136.689 122.336 136.837 121.848 136.836 121.349C136.835 120.679 136.569 120.037 136.095 119.564C135.622 119.09 134.98 118.824 134.31 118.824Z" fill="black"/>
<path d="M281.78 112.902L276.633 111.496L280.373 107.052L281.78 112.902Z" fill="#9F9F9F"/>
<path d="M27.4086 143.189L22.2617 141.783L26.0023 137.339L27.4086 143.189ZM176.254 14.098L171.107 12.6918L174.848 8.24805L176.254 14.098Z" fill="#A4A4A4"/>
<path d="M72.6703 68.102L67.5234 66.6957L71.2641 62.252L72.6703 68.102Z" fill="#A3A3A3"/>
<path d="M162.873 239.752L157.727 238.346L161.467 233.902L162.873 239.752Z" fill="#696969"/>
</g>
</g>
<defs>
<clipPath id="clip0_1291_692">
<rect width="312" height="248" fill="white"/>
</clipPath>
<clipPath id="clip1_1291_692">
<rect width="360" height="360" fill="white" transform="translate(-24 -56)"/>
</clipPath>
</defs>
</svg>
